<svg width="40" height="40" viewBox="0 0 40 40" fill="none" xmlns="http://www.w3.org/2000/svg">
<path d="M39.999 19.9995C39.999 8.95418 31.0448 0 19.9995 0C8.95418 0 0 8.95418 0 19.9995C0 29.3785 6.45744 37.2487 15.1684 39.4102V26.1114H11.0445V19.9995H15.1684V17.366C15.1684 10.5589 18.2492 7.40382 24.9322 7.40382C26.1994 7.40382 28.3857 7.65261 29.2801 7.90061V13.4405C28.8081 13.3909 27.9881 13.3661 26.9697 13.3661C23.6906 13.3661 22.4235 14.6084 22.4235 17.838V19.9995H28.9561L27.8337 26.1114H22.4235V39.8526C32.3264 38.6567 39.9998 30.2249 39.9998 19.9995H39.999Z" fill="#0866FF"/>
</svg>
