<svg width="24" height="24" viewBox="0 0 24 24" fill="none" xmlns="http://www.w3.org/2000/svg">
<path fill-rule="evenodd" clip-rule="evenodd" d="M7.05051 6.04999C8.36333 4.73717 10.1439 3.99963 12.0005 3.99963C13.8571 3.99963 15.6377 4.73717 16.9505 6.04999C18.2633 7.36281 19.0009 9.14338 19.0009 11C19.0009 12.8566 18.2633 14.6372 16.9505 15.95L12.0005 20.9L7.05051 15.95C6.40042 15.3 5.88474 14.5283 5.53291 13.6789C5.18108 12.8296 5 11.9193 5 11C5 10.0807 5.18108 9.17037 5.53291 8.32104C5.88474 7.47172 6.40042 6.70001 7.05051 6.04999ZM12.0005 13C12.5309 13 13.0396 12.7893 13.4147 12.4142C13.7898 12.0391 14.0005 11.5304 14.0005 11C14.0005 10.4696 13.7898 9.96085 13.4147 9.58578C13.0396 9.2107 12.5309 8.99999 12.0005 8.99999C11.4701 8.99999 10.9614 9.2107 10.5863 9.58578C10.2112 9.96085 10.0005 10.4696 10.0005 11C10.0005 11.5304 10.2112 12.0391 10.5863 12.4142C10.9614 12.7893 11.4701 13 12.0005 13Z" fill="#B0BABF"/>
</svg>
